<svg xmlns="http://www.w3.org/2000/svg" version="1.1" xmlns:xlink="http://www.w3.org/1999/xlink" xmlns:svgjs="http://svgjs.dev/svgjs" width="1000" height="750" viewBox="0 0 1000 750"><rect width="1000" height="750" fill="#ffffff"></rect><g transform="matrix(0.5191111111111111,0,0,0.5191111111111111,240.4444444444445,83)"><svg viewBox="0 0 320 360" data-background-color="#ffffff" preserveAspectRatio="xMidYMid meet" height="1125" width="1000" xmlns="http://www.w3.org/2000/svg" xmlns:xlink="http://www.w3.org/1999/xlink"><g id="tight-bounds" transform="matrix(1,0,0,1,0,0)"><svg viewBox="0 0 320 360" height="360" width="320"><g><svg></svg></g><g><svg viewBox="0 0 320 360" height="360" width="320"><g><path xmlns="http://www.w3.org/2000/svg" d="M20.961 227.22l3.726 4.658-1.863-6.056c-0.466-2.795-3.726 0.466-1.863 1.398M25.153 224.425c1.397 2.329 2.795 4.658 2.795 6.987 0 3.261 2.795 4.658 5.123 5.589-3.261-3.726-5.124-13.974-7.918-12.576M204.017 26.929c7.918 0 15.371-0.932 23.756 0.931 20.495 5.124 37.729 15.371 49.374 29.811l32.606 52.169c1.397 13.042 4.192 27.482 3.726 43.319 3.261 0 2.795-4.658 6.521-5.59-3.726 9.316-5.59 20.961-6.521 34.469-2.329-7.453 0-18.632 0.466-24.687-3.261 5.124-5.124 1.397-5.124-0.932 0.466-3.726-1.397-3.261-2.795-4.658-5.124-4.658-8.384-9.782-12.11-17.7 2.329-6.055 2.795-14.905-4.658-19.563-2.329-1.397-5.124-3.726-6.521-7.453-1.863-5.124-5.124-11.179-4.193-19.097 0.466-2.329-6.987 5.124-11.179 1.863-18.166-12.576-36.332-27.016-58.224-39.127-11.645 0-20.029-4.192-24.221-9.316-3.726-4.658-0.932-10.713 4.658-11.179 3.261 0 6.987-0.932 9.782 0.932 0.466-1.863 2.329-4.192 4.657-4.192M157.904 16.215l0.932 0.466c4.658 0.932 6.987 7.453 12.11 5.124 0 3.261 0.466 6.521-0.466 8.85-1.397 3.726-5.59 3.726-8.85 3.726-31.208-1.863-49.374 11.179-68.471 22.358-5.124 3.261-10.713 5.59-14.906 9.782-20.029 18.632-41.921 35.866-47.045 70.335l-4.192 38.195c-0.466 4.192-5.124 8.384-4.192 13.508l3.26 22.824c-3.261-3.261-5.124 0.932-4.192 2.795 0.466 1.397 2.329 6.055 5.124 1.863 3.726 6.987 7.453 20.495 12.576 26.55 15.837 18.632 36.332 35.4 53.101 52.169 4.192-0.932 7.453-0.932 8.384-3.727 1.397 2.795-1.397 5.59-3.726 6.056 7.453 4.658 15.837 8.85 27.016 9.781 14.44 0.932 27.948 3.261 40.524 6.522 6.521-1.863 13.042-2.795 20.029-3.261 2.329 0 3.726-3.726 6.521-4.658l0.466-4.658c2.795 4.192 2.329-1.397 0.466-4.192 3.261 2.795 4.192 5.124 5.589 6.987 0-1.397 3.726-6.521 3.727-0.466l0.931-6.055c1.397-0.932 1.863 5.124 3.261 0.931 1.397-4.192 4.192-0.932 6.987-2.329-0.932 1.863-0.466 5.59 2.794 3.261l3.727-3.261c2.329 5.59 6.055 3.261 7.918 2.329 20.495-13.042 40.99-28.413 60.553-43.784l-0.466 6.055 2.329-7.453c2.329 2.329 4.192 0.466 5.124-0.931 2.795-4.658 6.521-9.316 12.577-13.508-7.453 20.029-16.303 35.866-27.482 48.908l-4.658 5.59c0 3.261-0.932 7.453-4.658 7.918-1.863 0.466-5.59-0.932-8.384 1.863-1.397 1.863 3.261 5.59-0.466 2.795-3.261-2.329-6.521 0-10.248 0.932-2.795 0.932 1.863 3.726 2.795 5.589 0.932 1.863 1.863 3.726 1.398 6.056l-5.124-5.59c-6.055 3.261-9.782 9.316-14.906 13.974-2.329 1.863-1.397 5.124-1.397 7.918-3.261 0-6.987-0.932-8.85 0.932-1.397 1.863-0.932 4.658-0.932 7.453-4.658-0.466-5.124-7.453-9.315-6.056-4.192 0.932-8.85 1.397-12.577 3.727 2.795 5.59-4.658 2.329-3.726 3.26-6.987-4.192-13.042-7.453-20.495-4.658-15.837-5.124-35.4-2.795-49.84-0.931 0-2.329 0.466-4.658-0.466-5.124-0.932 2.329-3.726 1.397-3.26 1.397-8.85-6.055-17.7-9.782-27.016-14.905-8.384 0.932-16.303-3.261-18.632-5.59-6.521-6.055-13.974-2.795-20.029-4.192-13.042-3.261-17.7-16.769-19.098-26.084-0.932-4.658-4.658-6.521-6.055-6.056-6.055-19.563-15.371-37.263-22.824-55.429-1.863-4.658-1.397-9.316-1.397-14.44 2.329 0.932 4.658 0.466 4.192-2.794-2.329-15.371-7.918-27.016-13.974-38.195 3.261-15.837 3.726-34.469 11.179-48.443 6.521-12.576 18.632-19.098 27.016-29.811 2.795-3.726 2.795-8.85 5.59-12.11 9.316-9.316 18.632-19.098 28.879-27.482 4.658-3.726 10.247 0 17.234-1.397 2.329-8.384 11.645-15.837 20.495-13.508 3.726 0.932 11.179-8.85 13.508-9.782 3.726-1.397 1.863 3.726 1.863 6.987 8.85-6.987 20.961-10.713 32.14-14.906" fill="#ed2647" fill-rule="nonzero" stroke="none" stroke-width="1" stroke-linecap="butt" stroke-linejoin="miter" stroke-miterlimit="10" stroke-dasharray="" stroke-dashoffset="0" font-family="none" font-weight="none" font-size="none" text-anchor="none" style="mix-blend-mode: normal" data-fill-palette-color="tertiary"></path></g><g transform="matrix(1,0,0,1,64,170.31167728237793)"><svg viewBox="0 0 192 19.37664543524416" height="19.37664543524416" width="192"><g><svg viewBox="0 0 192 19.37664543524416" height="19.37664543524416" width="192"><g><svg viewBox="0 0 192 19.37664543524416" height="19.37664543524416" width="192"><g><svg viewBox="0 0 192 19.37664543524416" height="19.37664543524416" width="192"><g><svg viewBox="0 0 192 19.37664543524416" height="19.37664543524416" width="192" id="textblock"><g><svg viewBox="0 0 192 19.37664543524416" height="19.37664543524416" width="192"><g transform="matrix(1,0,0,1,0,0)"><svg width="192" viewBox="1.5 -35 353.2200012207031 35.650001525878906" height="19.37664543524416" data-palette-color="#ed2647"><path d="M8.4-34.5L12.8-34.5 12.8-7.25Q12.8-3.45 11.08-1.5 9.35 0.45 6.1 0.45L6.1 0.45Q5.45 0.45 4.58 0.38 3.7 0.3 2.88 0.15 2.05 0 1.5-0.2L1.5-0.2 2-3.3 4.5-3.3Q8.4-3.3 8.4-7.1L8.4-7.1 8.4-34.5ZM32.4-24.95L32.4-24.95Q35.1-24.95 36.97-24.23 38.85-23.5 39.8-21.8 40.75-20.1 40.75-17.15L40.75-17.15 40.75 0 37.4 0 36.75-5.3 36.45-5.85 36.45-17.15Q36.45-19.4 35.42-20.38 34.4-21.35 31.5-21.35L31.5-21.35Q29.6-21.35 26.72-21.15 23.85-20.95 21.05-20.7L21.05-20.7 20.65-23.85Q22.35-24.15 24.37-24.4 26.4-24.65 28.5-24.8 30.6-24.95 32.4-24.95ZM26.3-15L38.75-15 38.7-11.8 27.05-11.75Q25.3-11.7 24.6-10.83 23.9-9.95 23.9-8.4L23.9-8.4 23.9-6.85Q23.9-4.95 24.8-4.08 25.7-3.2 27.7-3.2L27.7-3.2Q29.1-3.2 30.87-3.73 32.65-4.25 34.45-5.35 36.25-6.45 37.75-8.15L37.75-8.15 37.75-5Q37.2-4.3 36.17-3.38 35.15-2.45 33.72-1.58 32.3-0.7 30.57-0.13 28.85 0.45 26.85 0.45L26.85 0.45Q24.7 0.45 23.05-0.33 21.4-1.1 20.47-2.63 19.55-4.15 19.55-6.35L19.55-6.35 19.55-9Q19.55-11.85 21.32-13.43 23.1-15 26.3-15L26.3-15ZM63.15-24.95L63.15-24.95Q69.75-24.95 69.75-18.25L69.75-18.25 69.75 0 65.5 0 65.5-17.05Q65.5-19.5 64.7-20.43 63.9-21.35 62-21.35L62-21.35Q59.75-21.35 57.5-20.25 55.25-19.15 52.15-17.25L52.15-17.25 51.95-20.3Q54.8-22.5 57.6-23.73 60.4-24.95 63.15-24.95ZM48.35-24.35L51.95-24.35 52.3-19.7 52.6-18.95 52.6 0 48.35 0 48.35-24.35ZM107.04-24.95L107.04-24.95Q110.19-24.95 111.87-23.25 113.54-21.55 113.54-18.25L113.54-18.25 113.54 0 109.34 0 109.34-17.05Q109.29-19.3 108.44-20.33 107.59-21.35 105.54-21.35L105.54-21.35Q104.24-21.35 103.07-20.93 101.89-20.5 100.49-19.6 99.09-18.7 97.09-17.25L97.09-17.25 96.84-20.25Q99.49-22.6 101.99-23.78 104.49-24.95 107.04-24.95ZM77.39-24.35L80.89-24.35 81.19-19.7 81.64-18.95 81.64 0 77.39 0 77.39-24.35ZM91.09-24.95L91.09-24.95Q94.19-24.95 95.84-23.28 97.49-21.6 97.54-18.25L97.54-18.25 97.54 0 93.44 0 93.44-17.05Q93.44-19.4 92.49-20.38 91.54-21.35 89.64-21.35L89.64-21.35Q88.39-21.35 87.22-20.95 86.04-20.55 84.62-19.65 83.19-18.75 81.14-17.25L81.14-17.25 80.84-20.25Q83.49-22.6 85.99-23.78 88.49-24.95 91.09-24.95ZM132.69-24.95L132.69-24.95Q135.39-24.95 137.27-24.23 139.14-23.5 140.09-21.8 141.04-20.1 141.04-17.15L141.04-17.15 141.04 0 137.69 0 137.04-5.3 136.74-5.85 136.74-17.15Q136.74-19.4 135.72-20.38 134.69-21.35 131.79-21.35L131.79-21.35Q129.89-21.35 127.02-21.15 124.14-20.95 121.34-20.7L121.34-20.7 120.94-23.85Q122.64-24.15 124.67-24.4 126.69-24.65 128.79-24.8 130.89-24.95 132.69-24.95ZM126.59-15L139.04-15 138.99-11.8 127.34-11.75Q125.59-11.7 124.89-10.83 124.19-9.95 124.19-8.4L124.19-8.4 124.19-6.85Q124.19-4.95 125.09-4.08 125.99-3.2 127.99-3.2L127.99-3.2Q129.39-3.2 131.17-3.73 132.94-4.25 134.74-5.35 136.54-6.45 138.04-8.15L138.04-8.15 138.04-5Q137.49-4.3 136.47-3.38 135.44-2.45 134.02-1.58 132.59-0.7 130.87-0.13 129.14 0.45 127.14 0.45L127.14 0.45Q124.99 0.45 123.34-0.33 121.69-1.1 120.77-2.63 119.84-4.15 119.84-6.35L119.84-6.35 119.84-9Q119.84-11.85 121.62-13.43 123.39-15 126.59-15L126.59-15ZM148.64-24.35L151.94-24.35 152.49-19.7 152.89-18.95 152.89 0 148.64 0 148.64-24.35ZM162.79-24.95L163.89-24.95 163.39-20.95 161.99-20.95Q159.84-20.95 157.69-20.08 155.54-19.2 152.44-17.6L152.44-17.6 152.09-20.25Q154.79-22.45 157.51-23.7 160.24-24.95 162.79-24.95L162.79-24.95ZM178.44-24.95L178.44-24.95Q179.54-24.95 180.89-24.85 182.24-24.75 183.66-24.5 185.09-24.25 186.29-23.8L186.29-23.8 185.74-21.05Q184.09-21.2 182.26-21.28 180.44-21.35 179.14-21.35L179.14-21.35Q176.24-21.35 174.54-20.55 172.84-19.75 172.09-17.75 171.34-15.75 171.34-12.2L171.34-12.2Q171.34-8.65 172.09-6.63 172.84-4.6 174.54-3.8 176.24-3 179.14-3L179.14-3Q179.89-3 181.09-3.05 182.29-3.1 183.66-3.2 185.04-3.3 186.29-3.5L186.29-3.5 186.74-0.65Q184.89 0 182.71 0.3 180.54 0.6 178.39 0.6L178.39 0.6Q174.19 0.6 171.64-0.65 169.09-1.9 167.96-4.7 166.84-7.5 166.84-12.2L166.84-12.2Q166.84-16.9 167.99-19.7 169.14-22.5 171.69-23.73 174.24-24.95 178.44-24.95ZM207.28-24.95L207.28-24.95Q213.88-24.95 213.88-18.25L213.88-18.25 213.88 0 209.58 0 209.58-17.05Q209.58-19.5 208.81-20.43 208.03-21.35 206.13-21.35L206.13-21.35Q203.88-21.35 201.63-20.3 199.38-19.25 196.28-17.25L196.28-17.25 196.08-20.3Q198.93-22.45 201.73-23.7 204.53-24.95 207.28-24.95ZM192.48-35L196.73-35 196.78-25.35Q196.78-23.7 196.66-22.25 196.53-20.8 196.28-19.7L196.28-19.7 196.73-18.95 196.73 0 192.48 0 192.48-35ZM245.03-34.95L245.03-34.95Q249.03-34.95 251.48-34.08 253.93-33.2 255.05-31.05 256.18-28.9 256.18-25L256.18-25Q256.18-22.2 255.53-20.33 254.88-18.45 253.5-17.43 252.13-16.4 249.83-16.1L249.83-16.1 249.83-15.85Q250.68-15.65 251.5-15.03 252.33-14.4 253.03-13.38 253.73-12.35 254.08-10.9L254.08-10.9 257.43 0 252.73 0 249.68-10.8Q249.03-12.75 247.93-13.58 246.83-14.4 245.08-14.4L245.08-14.4Q242.03-14.4 239.78-14.43 237.53-14.45 236.03-14.5 234.53-14.55 233.63-14.55L233.63-14.55 233.78-18.2 244.93-18.2Q247.48-18.25 248.95-18.8 250.43-19.35 251.08-20.78 251.73-22.2 251.73-24.75L251.73-24.75Q251.73-27.3 251.08-28.68 250.43-30.05 248.95-30.6 247.48-31.15 244.93-31.15L244.93-31.15Q240.83-31.15 237.85-31.1 234.88-31.05 233.83-31.05L233.83-31.05 233.13-34.5Q235.03-34.7 236.68-34.8 238.33-34.9 240.3-34.93 242.28-34.95 245.03-34.95ZM233.13-34.5L237.48-34.5 237.48 0 233.13 0 233.13-34.5ZM263.43-24.35L267.68-24.35 267.68-7.25Q267.63-4.95 268.53-4 269.43-3.05 271.53-3.05L271.53-3.05Q273.58-3.05 275.6-4.03 277.63-5 280.48-6.85L280.48-6.85 281.03-3.9Q278.18-1.65 275.5-0.5 272.83 0.65 270.08 0.65L270.08 0.65Q263.43 0.65 263.43-6.05L263.43-6.05 263.43-24.35ZM280.03-24.35L284.28-24.35 284.28 0 280.88 0 280.48-4.6 280.03-5.35 280.03-24.35ZM305.17-24.95L305.17-24.95Q309.67-24.95 311.82-22.03 313.97-19.1 313.97-12.25L313.97-12.25Q313.97-9.1 313.45-6.7 312.92-4.3 311.7-2.68 310.47-1.05 308.4-0.23 306.32 0.6 303.17 0.6L303.17 0.6Q301.92 0.6 300.47 0.5 299.02 0.4 297.52 0.18 296.02-0.05 294.6-0.38 293.17-0.7 291.97-1.15L291.97-1.15 295.37-4.05Q296.72-3.65 298.05-3.4 299.37-3.15 300.65-3.08 301.92-3 303.07-3L303.07-3Q305.42-3.05 306.85-3.9 308.27-4.75 308.92-6.78 309.57-8.8 309.57-12.25L309.57-12.25Q309.57-15.6 309.07-17.57 308.57-19.55 307.3-20.4 306.02-21.25 303.67-21.25L303.67-21.25Q301.67-21.25 299.87-20.18 298.07-19.1 295.72-17.25L295.72-17.25 295.42-20.1Q296.92-21.7 298.5-22.78 300.07-23.85 301.77-24.4 303.47-24.95 305.17-24.95ZM291.97-35L296.22-35 296.22-25.9Q296.22-24.35 296.15-23.05 296.07-21.75 295.77-20.4L295.77-20.4 296.17-19.7 296.22-0.95 291.97-1.15 291.97-35ZM320.77-24.35L324.97-24.35 324.97 0 320.77 0 320.77-24.35ZM321.87-34.7L323.87-34.7Q325.17-34.7 325.17-33.4L325.17-33.4 325.17-30.55Q325.17-29.25 323.87-29.25L323.87-29.25 321.87-29.25Q320.57-29.25 320.57-30.55L320.57-30.55 320.57-33.4Q320.57-34.7 321.87-34.7L321.87-34.7ZM343.27-24.95L343.27-24.95Q347.47-24.95 349.99-23.7 352.52-22.45 353.62-19.63 354.72-16.8 354.72-12.15L354.72-12.15Q354.72-7.5 353.62-4.67 352.52-1.85 349.99-0.6 347.47 0.65 343.27 0.65L343.27 0.65Q339.12 0.65 336.59-0.6 334.07-1.85 332.94-4.67 331.82-7.5 331.82-12.15L331.82-12.15Q331.82-16.8 332.94-19.63 334.07-22.45 336.59-23.7 339.12-24.95 343.27-24.95ZM343.27-21.35L343.27-21.35Q340.62-21.35 339.09-20.53 337.57-19.7 336.92-17.7 336.27-15.7 336.27-12.15L336.27-12.15Q336.27-8.6 336.92-6.6 337.57-4.6 339.09-3.78 340.62-2.95 343.27-2.95L343.27-2.95Q345.92-2.95 347.47-3.78 349.02-4.6 349.67-6.6 350.32-8.6 350.32-12.15L350.32-12.15Q350.32-15.7 349.67-17.7 349.02-19.7 347.47-20.53 345.92-21.35 343.27-21.35Z" opacity="1" transform="matrix(1,0,0,1,0,0)" fill="#ed2647" class="undefined-text-0" data-fill-palette-color="primary" id="text-0"></path></svg></g></svg></g></svg></g></svg></g><g></g></svg></g></svg></g></svg></g></svg></g><defs></defs></svg><rect width="320" height="360" fill="none" stroke="none" visibility="hidden"></rect></g></svg></g></svg>